<svg width="29" height="29" viewBox="0 0 29 29" fill="none" xmlns="http://www.w3.org/2000/svg">
<path d="M14.5 29C6.51544 29 0 22.4835 0 14.5C0 6.51544 6.51655 0 14.5 0C22.4846 0 29 6.51655 29 14.5C29 22.4846 22.4835 29 14.5 29ZM14.5 1.69922C7.4416 1.69922 1.69922 7.4416 1.69922 14.5C1.69922 21.5584 7.4416 27.3008 14.5 27.3008C21.5584 27.3008 27.3008 21.5584 27.3008 14.5C27.3008 7.4416 21.5584 1.69922 14.5 1.69922Z" fill="#7A8085"/>
<path d="M10.252 6.11555L22.8286 14.4999L10.252 22.8843L10.252 6.11555ZM11.9512 19.7093L19.7651 14.4999L11.9512 9.29053L11.9512 19.7093Z" fill="#7A8085"/>
</svg>
